<?xml version="1.0" standalone="no"?>
<!DOCTYPE svg PUBLIC "-//W3C//DTD SVG 20010904//EN"
 "http://www.w3.org/TR/2001/REC-SVG-20010904/DTD/svg10.dtd">
<svg version="1.0" xmlns="http://www.w3.org/2000/svg"
 width="1048.000000pt" height="1280.000000pt" viewBox="0 0 1048.000000 1280.000000"
 preserveAspectRatio="xMidYMid meet">
<metadata>
Created by potrace 1.15, written by Peter Selinger 2001-2017
</metadata>
<g transform="translate(0.000000,1280.000000) scale(0.100000,-0.100000)"
fill="#000000" stroke="none">
<path d="M6762 12784 c-35 -24 -59 -82 -88 -209 -14 -65 -34 -142 -45 -171
l-18 -54 120 0 119 0 0 209 c0 206 0 210 -22 225 -28 20 -38 20 -66 0z"/>
<path d="M6862 12568 l3 -213 53 -3 c51 -3 52 -3 52 25 0 58 -91 403 -106 403
-2 0 -3 -96 -2 -212z"/>
<path d="M6566 12243 c-21 -49 -71 -149 -112 -225 -41 -75 -74 -139 -74 -142
0 -3 106 -6 235 -6 l235 0 0 230 0 230 -123 0 -124 0 -37 -87z"/>
<path d="M6862 12103 l3 -228 80 0 80 0 -3 65 c-3 70 -28 305 -38 358 -6 32
-7 32 -65 32 l-59 0 2 -227z"/>
<path d="M6390 11630 l0 -230 230 0 230 0 0 230 0 230 -230 0 -230 0 0 -230z"/>
<path d="M6867 11853 c-4 -3 -7 -107 -7 -230 l0 -223 92 0 91 0 -6 158 c-4 86
-7 190 -7 230 l0 72 -78 0 c-43 0 -82 -3 -85 -7z"/>
<path d="M6257 11688 c-59 -90 -128 -191 -153 -225 l-45 -63 155 0 156 0 0
225 c0 124 -1 225 -3 225 -2 0 -52 -73 -110 -162z"/>
<path d="M5976 11293 l-66 -87 0 -143 0 -143 230 0 230 0 0 230 0 230 -164 0
-163 0 -67 -87z"/>
<path d="M6390 11144 l0 -236 23 7 c12 4 115 6 230 5 l207 -2 0 231 0 231
-230 0 -230 0 0 -236z"/>
<path d="M6860 11150 l0 -230 85 0 85 0 0 78 c0 44 3 147 7 230 l6 152 -91 0
-92 0 0 -230z"/>
<path d="M5781 11050 l-103 -125 102 -3 c57 -1 104 -1 107 1 2 2 2 60 1 128
l-3 124 -104 -125z"/>
<path d="M5636 10878 c-8 -11 -58 -67 -111 -124 l-95 -102 0 -106 0 -106 230
0 230 0 0 230 0 230 -119 0 c-111 0 -121 -2 -135 -22z"/>
<path d="M5910 10670 l0 -230 29 0 c30 0 101 71 316 315 43 50 90 102 104 118
l25 27 -237 0 -237 0 0 -230z"/>
<path d="M6540 10847 c28 -79 40 -168 40 -294 l0 -113 135 0 135 0 0 230 0
230 -164 0 -164 0 18 -53z"/>
<path d="M6860 10670 l0 -230 69 0 69 0 6 63 c12 117 26 302 26 350 l0 47 -85
0 -85 0 0 -230z"/>
<path d="M10304 10872 c-21 -16 -51 -45 -66 -65 -28 -36 -28 -36 -28 -201 l0
-166 119 0 c137 0 121 -14 142 129 26 185 -17 331 -99 331 -16 0 -47 -13 -68
-28z"/>
<path d="M10095 10594 c-49 -75 -91 -140 -93 -145 -2 -5 39 -9 92 -9 l96 0 0
145 c0 80 -1 145 -2 145 -2 0 -43 -62 -93 -136z"/>
<path d="M5319 10563 c-47 -38 -100 -80 -119 -95 l-35 -27 123 -1 122 0 0 95
c0 52 -1 95 -3 95 -2 0 -41 -30 -88 -67z"/>
<path d="M5048 10357 l-98 -72 3 -160 2 -160 228 -3 227 -2 0 235 0 235 -132
0 -133 -1 -97 -72z"/>
<path d="M5434 10417 c-2 -7 -3 -110 -2 -230 l3 -217 115 96 c63 52 166 141
227 197 100 90 113 106 113 135 l0 32 -225 0 c-174 0 -227 -3 -231 -13z"/>
<path d="M6586 10418 c-3 -7 -7 -113 -10 -236 l-5 -223 137 3 137 3 0 230 0
230 -128 3 c-97 2 -128 0 -131 -10z"/>
<path d="M6867 10423 c-4 -3 -7 -160 -6 -347 0 -212 4 -333 9 -321 19 42 120
593 120 655 0 18 -7 20 -58 20 -32 0 -62 -3 -65 -7z"/>
<path d="M9922 10353 c-33 -43 -90 -112 -126 -153 l-66 -75 0 -82 0 -83 230 0
230 0 0 235 0 235 -104 0 -104 0 -60 -77z"/>
<path d="M10210 10195 l0 -235 64 0 65 0 16 58 c26 89 93 396 88 405 -2 4 -56
7 -119 7 l-114 0 0 -235z"/>
<path d="M4725 10117 l-200 -152 195 -3 c107 -1 200 0 207 2 10 4 13 43 13
156 0 82 -3 150 -7 149 -5 0 -98 -69 -208 -152z"/>
<path d="M321 10212 c-24 -9 -66 -37 -93 -60 l-48 -44 0 -74 0 -74 230 0 230
0 0 55 c0 157 -161 257 -319 197z"/>
<path d="M9638 10035 c-38 -36 -68 -67 -68 -70 0 -3 32 -5 70 -5 l70 0 0 70
c0 39 -1 70 -2 70 -2 -1 -33 -30 -70 -65z"/>
<path d="M107 9938 c-55 -167 -85 -287 -93 -380 l-7 -68 77 0 76 0 0 295 c0
162 -1 295 -3 295 -1 0 -24 -64 -50 -142z"/>
<path d="M181 9773 l0 -178 30 65 c36 78 35 76 54 60 49 -41 179 -26 259 29
61 42 116 128 116 182 0 18 -9 19 -230 19 l-230 0 1 -177z"/>
<path d="M1700 9943 c-14 -2 -40 -6 -57 -9 l-33 -5 0 -86 c0 -83 0 -85 23 -80
128 32 264 32 377 2 30 -8 56 -15 58 -15 1 0 1 39 0 88 l-3 87 -75 12 c-71 11
-235 15 -290 6z"/>
<path d="M4492 9938 c-9 -9 -12 -74 -12 -230 l0 -218 121 0 121 0 109 67 109
68 0 162 0 163 -218 0 c-156 0 -221 -3 -230 -12z"/>
<path d="M4957 9943 c-4 -3 -7 -74 -7 -156 0 -127 2 -148 15 -144 32 13 386
258 429 298 6 5 -84 9 -210 9 -122 0 -224 -3 -227 -7z"/>
<path d="M5543 9926 c-34 -13 -74 -31 -88 -40 l-25 -16 0 -190 0 -190 230 0
230 0 0 230 0 230 -142 -1 c-124 0 -151 -3 -205 -23z"/>
<path d="M5910 9720 l0 -230 185 0 185 0 0 33 c0 150 -118 327 -263 396 -114
54 -107 68 -107 -199z"/>
<path d="M6566 9938 c-2 -7 -9 -60 -16 -118 -10 -95 -31 -231 -46 -303 l-6
-28 148 3 148 3 28 95 c24 82 28 113 28 228 l0 132 -140 0 c-104 0 -142 -3
-144 -12z"/>
<path d="M9398 9829 l-148 -121 0 -109 0 -109 230 0 230 0 0 230 0 230 -82 0
-83 0 -147 -121z"/>
<path d="M9730 9720 l0 -230 230 0 230 0 0 230 0 230 -230 0 -230 0 0 -230z"/>
<path d="M10211 9743 l0 -208 60 190 c32 104 59 197 59 207 0 15 -9 18 -60 18
l-60 0 1 -207z"/>
<path d="M1540 9916 c-133 -38 -248 -104 -347 -199 l-63 -60 0 -84 0 -83 70 0
c39 0 70 3 70 8 0 17 90 116 141 154 30 23 82 54 117 70 l62 28 0 90 c0 50 -1
90 -2 89 -2 0 -23 -7 -48 -13z"/>
<path d="M2090 9832 l0 -87 95 -44 c67 -31 106 -56 135 -87 22 -24 40 -48 40
-53 0 -5 -19 -23 -42 -40 l-42 -31 137 0 137 0 0 90 0 90 -82 61 c-92 68 -209
130 -310 165 l-68 23 0 -87z"/>
<path d="M4329 9808 c-68 -56 -182 -150 -252 -210 l-128 -108 255 0 256 0 0
210 c0 116 -1 210 -3 210 -2 0 -59 -46 -128 -102z"/>
<path d="M5337 9805 c-80 -66 -144 -145 -192 -236 -19 -37 -35 -70 -35 -73 0
-3 69 -6 153 -6 l152 0 0 185 c0 102 -2 185 -6 185 -3 0 -35 -25 -72 -55z"/>
<path d="M9103 9597 c-68 -52 -126 -96 -130 -100 -3 -4 55 -7 130 -7 l137 0 0
100 c0 55 -3 100 -7 100 -5 0 -63 -42 -130 -93z"/>
<path d="M2570 9572 l0 -82 71 0 70 0 -46 59 c-25 32 -57 69 -70 81 l-25 23 0
-81z"/>
<path d="M1103 9628 c-6 -7 -26 -41 -46 -75 l-36 -63 49 0 50 0 0 75 c0 41 -2
75 -4 75 -2 0 -8 -6 -13 -12z"/>
<path d="M0 9368 c1 -105 11 -211 31 -305 l10 -53 60 0 59 0 0 230 0 230 -80
0 -80 0 0 -102z"/>
<path d="M985 9390 c-34 -102 -54 -216 -55 -307 l0 -73 95 0 95 0 0 230 0 230
-54 0 -54 0 -27 -80z"/>
<path d="M1130 9318 c0 -83 3 -148 6 -145 4 4 21 51 39 104 18 54 42 119 53
146 l21 47 -59 0 -60 0 0 -152z"/>
<path d="M2269 9438 c-8 -18 -14 -64 -14 -103 0 -56 5 -81 28 -127 46 -93 142
-158 234 -158 l33 0 0 210 0 210 -134 0 -134 0 -13 -32z"/>
<path d="M2570 9260 l0 -210 25 10 c83 32 137 85 156 152 14 54 7 160 -16 216
l-17 42 -74 0 -74 0 0 -210z"/>
<path d="M3885 9433 c-22 -20 -113 -103 -202 -185 l-163 -150 0 -44 0 -44 230
0 230 0 0 230 0 230 -27 0 c-18 0 -43 -14 -68 -37z"/>
<path d="M4000 9230 l0 -240 -240 0 -240 0 0 -222 0 -221 113 109 c203 197
444 396 697 574 l130 92 0 74 0 74 -230 0 -230 0 0 -240z"/>
<path d="M4480 9405 c0 -36 2 -65 5 -65 5 0 176 109 190 122 5 4 -36 8 -93 8
l-102 0 0 -65z"/>
<path d="M5088 9433 c-8 -25 -13 -85 -13 -168 1 -116 3 -136 26 -190 l25 -60
142 -3 142 -3 0 231 0 230 -154 0 -154 0 -14 -37z"/>
<path d="M5430 9240 l0 -230 230 0 230 0 0 230 0 230 -230 0 -230 0 0 -230z"/>
<path d="M5910 9240 l0 -230 90 0 90 0 41 53 c77 96 149 275 149 369 l0 38
-185 0 -185 0 0 -230z"/>
<path d="M6477 9392 c-10 -44 -33 -134 -52 -201 -19 -67 -35 -136 -35 -152 l0
-30 116 3 116 3 24 60 c30 72 134 373 134 386 0 5 -64 9 -143 9 l-144 0 -16
-78z"/>
<path d="M8852 9413 l-82 -56 0 -174 0 -173 235 0 235 0 0 230 0 230 -153 0
-153 0 -82 -57z"/>
<path d="M9250 9240 l0 -230 230 0 230 0 0 230 0 230 -230 0 -230 0 0 -230z"/>
<path d="M9730 9240 l0 -230 145 0 c80 0 145 2 145 4 0 2 24 68 54 147 30 79
68 181 85 227 l30 82 -230 0 -229 0 0 -230z"/>
<path d="M8689 9300 c-31 -22 -139 -91 -240 -154 -101 -64 -191 -120 -199
-125 -10 -7 72 -10 248 -10 l262 -1 0 165 c0 91 -3 165 -8 165 -4 0 -32 -18
-63 -40z"/>
<path d="M4577 9180 c-21 -6 -51 -17 -67 -25 -29 -15 -30 -19 -30 -80 l0 -65
221 0 220 0 -21 30 c-79 110 -211 167 -323 140z"/>
<path d="M4409 9077 l-46 -62 44 -3 c25 -2 47 -1 50 1 2 3 3 32 1 65 l-3 61
-46 -62z"/>
<path d="M181 8869 l-1 -216 40 -61 40 -62 110 0 c60 0 110 3 110 6 0 3 -21
31 -46 61 -81 100 -146 223 -233 438 l-20 50 0 -216z"/>
<path d="M50 8980 c0 -13 89 -259 101 -280 5 -9 9 47 9 138 l0 152 -55 0 c-31
0 -55 -5 -55 -10z"/>
<path d="M930 8956 c0 -75 39 -223 92 -353 29 -70 31 -73 64 -73 l34 0 0 230
0 230 -95 0 -95 0 0 -34z"/>
<path d="M3303 8873 c-205 -222 -263 -291 -263 -318 l0 -25 230 0 230 0 0 230
0 230 -44 0 c-43 0 -46 -2 -153 -117z"/>
<path d="M4352 8973 c-4 -10 -7 -52 -7 -93 1 -81 23 -136 85 -210 l29 -35 1
178 0 177 -50 0 c-39 0 -52 -4 -58 -17z"/>
<path d="M4480 8811 l0 -179 52 -22 c103 -44 252 -11 326 75 57 64 76 112 76
195 1 119 21 110 -234 110 l-220 0 0 -179z"/>
<path d="M5206 8921 c60 -58 145 -112 192 -123 10 -2 13 20 15 95 l2 97 -140
0 -140 -1 71 -68z"/>
<path d="M5430 8890 l0 -100 28 -7 c43 -12 191 -8 252 6 30 8 83 25 117 40
l63 26 0 68 0 67 -230 0 -230 0 0 -100z"/>
<path d="M5910 8929 l0 -60 28 16 c15 9 52 37 81 61 l53 44 -81 0 -81 0 0 -61z"/>
<path d="M6390 8743 l0 -248 64 135 c60 127 156 345 156 355 0 3 -49 5 -110 5
l-110 0 0 -247z"/>
<path d="M8055 8912 c-77 -42 -161 -88 -187 -102 l-48 -25 0 -127 0 -128 230
0 230 0 0 230 0 230 -42 0 c-34 -1 -71 -16 -183 -78z"/>
<path d="M8300 8760 l0 -230 230 0 230 0 0 230 0 230 -230 0 -230 0 0 -230z"/>
<path d="M8770 8770 c0 -121 4 -220 8 -220 5 0 88 41 185 90 97 50 187 90 200
90 13 0 31 -6 41 -13 16 -12 16 -18 -13 -97 -17 -46 -31 -85 -31 -88 0 -2 17
-2 38 0 l37 3 3 228 2 227 -235 0 -235 0 0 -220z"/>
<path d="M9250 8760 l0 -230 230 0 230 0 0 230 0 230 -230 0 -230 0 0 -230z"/>
<path d="M9730 8759 l0 -230 47 3 47 3 76 185 c42 102 84 204 93 228 l17 42
-140 0 -140 0 0 -231z"/>
<path d="M6315 8853 c-26 -69 -67 -169 -91 -220 -24 -52 -44 -96 -44 -99 0 -2
43 -4 95 -4 l95 0 0 225 c0 124 -2 225 -4 225 -2 0 -25 -57 -51 -127z"/>
<path d="M1130 8677 l0 -147 60 0 c33 0 60 2 60 4 0 2 -13 32 -28 67 -16 35
-40 96 -52 134 -13 39 -27 74 -32 80 -4 5 -8 -57 -8 -138z"/>
<path d="M3926 8760 c-27 -11 -65 -34 -84 -52 -38 -36 -82 -120 -82 -155 0
-22 3 -23 110 -23 l110 0 0 125 c0 69 -1 125 -2 125 -2 -1 -25 -10 -52 -20z"/>
<path d="M4000 8655 l0 -125 135 0 c150 0 145 -3 119 72 -30 91 -112 156 -211
172 l-43 6 0 -125z"/>
<path d="M7765 8762 c-18 -16 -239 -109 -380 -161 -77 -28 -149 -56 -160 -61
-13 -5 91 -9 278 -9 l297 -1 0 120 c0 92 -3 120 -13 120 -7 0 -17 -4 -22 -8z"/>
<path d="M2944 8459 c-140 -180 -284 -384 -284 -403 0 -3 81 -6 180 -6 137 0
182 3 185 13 3 7 4 122 3 256 l-3 244 -81 -104z"/>
<path d="M3258 8512 l-218 -2 0 -253 1 -252 22 26 c12 14 62 75 112 135 49 59
139 162 198 227 60 65 107 119 106 120 -2 1 -102 1 -221 -1z"/>
<path d="M8498 8513 l-198 -3 0 -85 c0 -47 4 -85 8 -85 5 0 83 32 173 71 90
39 176 76 192 82 15 6 27 15 27 19 0 4 -1 7 -2 6 -2 -2 -92 -4 -200 -5z"/>
<path d="M321 8448 c30 -35 79 -88 110 -119 59 -58 191 -169 203 -169 3 0 6
51 6 113 l0 112 -69 63 -70 62 -116 0 -117 0 53 -62z"/>
<path d="M1130 8454 c0 -47 6 -65 40 -121 22 -37 40 -70 40 -74 0 -3 -18 -9
-40 -13 l-41 -6 3 -93 3 -92 228 -3 227 -2 0 94 0 93 -60 12 c-82 16 -132 58
-205 168 l-60 91 -67 1 -68 1 0 -56z"/>
<path d="M3760 8488 c0 -68 80 -171 157 -203 63 -27 63 -27 63 105 l0 120
-110 0 c-107 0 -110 -1 -110 -22z"/>
<path d="M4000 8386 l0 -124 43 5 c96 13 181 81 212 172 25 74 30 71 -120 71
l-135 0 0 -124z"/>
<path d="M6160 8486 c-5 -13 -12 -40 -16 -60 -13 -71 -18 -74 -201 -102 l-33
-5 0 -134 0 -135 230 0 230 0 0 170 c0 144 -2 170 -15 170 -18 0 -18 8 0 40 8
14 14 37 15 53 l0 27 -100 0 c-97 0 -101 -1 -110 -24z"/>
<path d="M7030 8495 c-30 -7 -81 -18 -113 -25 l-57 -12 2 -201 3 -202 230 0
230 0 3 228 2 227 -122 -1 c-68 -1 -148 -7 -178 -14z"/>
<path d="M7340 8279 l0 -232 38 7 c20 3 48 9 61 13 17 4 22 3 17 -5 -5 -9 38
-12 168 -12 l176 0 0 49 0 50 -37 -4 -38 -5 38 11 37 11 0 174 0 174 -230 0
-230 0 0 -231z"/>
<path d="M7820 8340 c0 -93 1 -170 3 -170 8 0 387 129 420 143 l37 16 0 90 0
91 -230 0 -230 0 0 -170z"/>
<path d="M9140 8486 c-28 -75 -118 -291 -147 -355 -18 -40 -33 -75 -33 -78 0
-2 62 -2 138 -1 l137 3 3 228 2 227 -45 0 c-39 0 -47 -3 -55 -24z"/>
<path d="M9252 8283 l3 -228 179 0 179 0 48 105 48 105 0 123 1 122 -230 0
-230 0 2 -227z"/>
<path d="M9730 8418 c0 -50 2 -89 4 -87 5 5 76 168 76 175 0 2 -18 4 -40 4
l-40 0 0 -92z"/>
<path d="M6585 8419 c-104 -15 -191 -28 -192 -28 -2 -1 -3 -78 -3 -171 l0
-170 228 2 227 3 3 198 2 197 -37 -1 c-21 -1 -123 -14 -228 -30z"/>
<path d="M650 8256 l0 -105 67 -51 68 -50 165 2 165 3 3 88 c1 48 -1 87 -6 87
-4 0 -29 -13 -54 -29 -25 -16 -54 -31 -64 -35 -23 -7 -126 51 -247 138 -43 31
-82 56 -88 56 -5 0 -9 -46 -9 -104z"/>
<path d="M3458 8283 c-49 -51 -60 -78 -60 -134 0 -69 23 -101 68 -97 l35 3 2
133 c1 72 0 132 -3 132 -3 0 -22 -17 -42 -37z"/>
<path d="M3520 8185 l0 -135 94 0 94 0 17 45 c42 109 -40 225 -159 225 l-46 0
0 -135z"/>
<path d="M5665 8280 c-115 -21 -216 -39 -222 -39 -10 -1 -13 -27 -13 -96 l0
-95 230 0 230 0 0 135 c0 74 -3 135 -7 134 -5 0 -102 -18 -218 -39z"/>
<path d="M1610 8141 l0 -91 120 0 c66 0 120 3 120 8 -1 11 -134 114 -190 145
l-50 29 0 -91z"/>
<path d="M5160 8187 l-205 -42 0 -45 0 -45 228 0 229 0 1 88 c2 87 2 87 -23
86 -14 0 -117 -19 -230 -42z"/>
<path d="M7820 8100 l0 -50 252 0 c138 0 248 3 245 7 -11 10 -176 62 -250 78
-38 8 -109 15 -158 15 l-89 0 0 -50z"/>
<path d="M4762 8100 c-90 -21 -167 -41 -170 -45 -3 -3 73 -4 169 -3 l174 3 3
43 c2 23 0 42 -5 41 -4 -1 -82 -18 -171 -39z"/>
<path d="M825 8021 c4 -12 -6 -43 -25 -80 -53 -105 -73 -232 -54 -330 l7 -31
183 0 184 0 -2 228 -3 227 -148 3 c-144 2 -148 2 -142 -17z"/>
<path d="M1130 7810 l0 -230 230 0 230 0 0 230 0 230 -230 0 -230 0 0 -230z"/>
<path d="M1610 7810 l0 -230 230 0 230 0 0 180 0 181 -77 49 -78 50 -152 0
-153 0 0 -230z"/>
<path d="M2642 8028 c-5 -7 -24 -37 -41 -66 l-31 -53 0 -164 0 -165 93 0 94 0
76 118 c41 64 103 155 136 202 39 55 61 95 61 112 l0 28 -189 0 c-139 0 -191
-3 -199 -12z"/>
<path d="M4493 8033 c-10 -3 -13 -50 -13 -182 l0 -178 118 27 c64 16 168 38
230 51 l112 22 0 133 0 134 -217 -1 c-120 0 -224 -3 -230 -6z"/>
<path d="M4950 7909 l0 -132 43 6 c52 7 236 25 340 33 l77 6 0 109 0 109 -230
0 -230 0 0 -131z"/>
<path d="M5430 7931 l0 -108 118 4 c64 2 168 6 230 9 l112 6 0 99 0 99 -230 0
-230 0 0 -109z"/>
<path d="M5910 7940 l0 -99 48 5 c69 7 391 34 402 34 6 0 10 36 10 80 l0 80
-230 0 -230 0 0 -100z"/>
<path d="M6390 7962 l0 -79 173 23 c94 12 197 26 227 31 l55 8 3 48 3 47 -230
0 -231 0 0 -78z"/>
<path d="M6867 8033 c-12 -11 -8 -83 4 -83 7 0 40 5 75 12 63 11 64 12 64 45
l0 33 -68 0 c-38 0 -72 -3 -75 -7z"/>
<path d="M7395 8007 l-50 -32 -3 -198 -2 -197 230 0 230 0 0 230 0 230 -178 0
-177 0 -50 -33z"/>
<path d="M7820 7810 l0 -230 230 0 230 0 0 230 0 230 -230 0 -230 0 0 -230z"/>
<path d="M8300 7810 l0 -230 140 0 c161 0 154 -6 125 104 -27 101 -82 194
-167 279 -43 42 -83 77 -88 77 -6 0 -10 -86 -10 -230z"/>
<path d="M8863 7851 c-71 -145 -93 -199 -93 -230 l0 -41 235 0 235 0 -2 228
-3 227 -140 3 -140 2 -92 -189z"/>
<path d="M9250 7810 l0 -231 72 3 72 3 103 220 c57 121 103 223 103 228 0 4
-79 7 -175 7 l-175 0 0 -230z"/>
<path d="M4305 7980 c-71 -21 -168 -52 -215 -68 l-85 -29 -3 -151 -3 -152 83
0 c68 1 110 9 228 44 l145 42 3 177 c2 138 0 177 -10 176 -7 0 -71 -18 -143
-39z"/>
<path d="M7233 7883 c-85 -83 -140 -152 -192 -245 l-32 -58 160 0 161 0 0 190
c0 105 -4 190 -8 190 -4 0 -44 -35 -89 -77z"/>
<path d="M3115 7919 c-45 -40 -62 -95 -46 -148 20 -69 99 -114 168 -96 15 3
44 23 65 44 33 34 38 45 38 85 0 90 -54 146 -142 146 -39 0 -54 -6 -83 -31z"/>
<path d="M2090 7752 l0 -172 146 0 c89 0 144 4 142 10 -7 21 -171 219 -227
275 l-61 59 0 -172z"/>
<path d="M3870 7829 c-52 -22 -152 -67 -222 -101 l-128 -61 0 -44 0 -43 230 0
230 0 0 145 c0 80 -3 145 -7 144 -5 0 -51 -18 -103 -40z"/>
<path d="M2526 7828 c-8 -18 -32 -71 -54 -118 -64 -138 -65 -130 12 -130 l66
0 0 140 c0 77 -2 140 -5 140 -3 0 -11 -15 -19 -32z"/>
<path d="M6390 7655 l0 -75 193 0 192 1 -45 40 c-78 69 -182 108 -287 109
l-53 0 0 -75z"/>
<path d="M6318 7706 c-46 -17 -113 -57 -158 -96 l-34 -30 122 0 122 0 0 70 c0
39 -3 70 -7 70 -5 -1 -24 -7 -45 -14z"/>
<path d="M5311 7690 c-50 -8 -172 -61 -216 -94 -18 -14 -5 -15 148 -16 l167 0
0 50 c0 28 0 53 0 58 1 10 -37 11 -99 2z"/>
<path d="M5430 7636 l0 -56 128 0 127 0 -50 32 c-64 40 -120 65 -167 73 l-38
7 0 -56z"/>
<path d="M8682 7513 c-38 -65 -81 -139 -96 -165 -16 -27 -29 -48 -31 -48 -1 0
3 25 10 55 8 31 17 89 20 130 l7 75 -146 0 -146 0 0 -230 0 -230 230 0 230 0
0 265 c0 146 -2 265 -4 265 -3 0 -36 -53 -74 -117z"/>
<path d="M765 7538 c21 -67 85 -169 145 -228 57 -58 168 -130 199 -130 8 0 11
57 11 190 l0 190 -181 0 -180 0 6 -22z"/>
<path d="M1132 7363 l3 -196 40 -16 c57 -21 313 -21 370 0 l40 16 3 196 2 197
-230 0 -230 0 2 -197z"/>
<path d="M1610 7370 c0 -104 3 -190 6 -190 24 0 139 76 193 127 76 73 114 84
196 59 28 -9 53 -16 58 -16 4 0 7 47 7 105 l0 105 -230 0 -230 0 0 -190z"/>
<path d="M2090 7444 c0 -116 0 -116 32 -152 32 -37 88 -149 88 -177 0 -13 24
-15 170 -15 l170 0 0 230 0 230 -230 0 -230 0 0 -116z"/>
<path d="M2570 7418 c0 -78 4 -138 8 -132 5 5 35 54 67 109 59 100 59 100 66
67 4 -19 19 -47 35 -63 72 -75 199 -32 211 72 3 26 0 55 -6 68 -11 20 -18 21
-196 21 l-185 0 0 -142z"/>
<path d="M3260 7508 c-41 -27 -108 -74 -147 -104 l-73 -54 0 -125 0 -125 49 0
c45 0 61 7 154 68 57 37 138 85 180 107 l77 40 0 123 0 122 -82 -1 c-83 0 -83
0 -158 -51z"/>
<path d="M3520 7444 c0 -89 3 -115 13 -111 6 3 59 27 117 53 58 26 179 75 270
110 l165 63 -282 1 -283 0 0 -116z"/>
<path d="M5031 7514 c-70 -107 -94 -250 -59 -364 l14 -45 212 -3 212 -2 0 230
0 230 -174 0 -174 0 -31 -46z"/>
<path d="M5430 7330 l0 -230 169 0 168 0 14 48 c8 26 14 88 14 137 -1 77 -5
99 -28 150 -15 32 -39 74 -53 92 l-25 33 -130 0 -129 0 0 -230z"/>
<path d="M6106 7538 c-47 -72 -61 -122 -61 -223 0 -88 3 -107 27 -157 l27 -58
135 0 136 0 0 230 0 230 -125 0 c-118 0 -125 -1 -139 -22z"/>
<path d="M6390 7330 l0 -230 209 0 209 0 21 49 c18 42 21 70 21 171 0 114 -2
124 -30 180 l-30 60 -200 0 -200 0 0 -230z"/>
<path d="M6986 7510 c-30 -101 -39 -170 -34 -273 3 -56 9 -110 13 -119 6 -16
25 -18 186 -18 l179 0 0 230 0 230 -165 0 -164 0 -15 -50z"/>
<path d="M7340 7330 l0 -230 230 0 230 0 0 230 0 230 -230 0 -230 0 0 -230z"/>
<path d="M7820 7330 l0 -230 230 0 230 0 0 230 0 230 -230 0 -230 0 0 -230z"/>
<path d="M8770 7330 l0 -230 193 0 193 0 42 85 42 85 0 145 0 145 -235 0 -235
0 0 -230z"/>
<path d="M9250 7435 c0 -69 2 -125 5 -125 5 0 64 114 100 195 l24 55 -65 0
-64 0 0 -125z"/>
<path d="M4335 7536 c-111 -35 -190 -102 -239 -202 -23 -46 -30 -76 -34 -146
l-5 -88 202 0 201 0 0 225 0 225 -42 -1 c-24 0 -61 -6 -83 -13z"/>
<path d="M4480 7326 l0 -226 165 0 165 0 6 26 c10 37 -3 125 -27 189 -39 104
-163 208 -276 230 l-33 7 0 -226z"/>
<path d="M2917 7243 c-59 -54 -114 -108 -123 -120 l-15 -23 125 0 126 0 0 120
c0 66 -1 120 -3 120 -1 0 -51 -44 -110 -97z"/>
<path d="M3543 7193 c-20 -4 -23 -11 -23 -49 l0 -44 192 0 c115 0 188 4 183 9
-6 5 -44 26 -85 47 -67 34 -84 38 -160 40 -47 1 -95 0 -107 -3z"/>
<path d="M2224 7063 c20 -73 29 -159 30 -290 l1 -153 148 0 147 0 0 230 0 230
-166 0 c-153 0 -165 -1 -160 -17z"/>
<path d="M2699 7010 c-55 -70 -69 -82 -69 -55 0 10 -10 15 -30 15 l-30 0 0
-175 0 -175 44 0 c37 0 46 4 51 21 4 12 88 102 186 201 151 151 179 184 179
209 l0 29 -139 0 -138 0 -54 -70z"/>
<path d="M3330 7028 c-61 -109 -64 -227 -8 -338 l33 -65 73 -3 72 -3 0 231 0
230 -70 0 -70 0 -30 -52z"/>
<path d="M3520 6850 l0 -230 198 2 197 3 33 64 c30 59 32 71 32 162 0 90 -2
102 -33 161 l-33 63 -197 3 -197 2 0 -230z"/>
<path d="M4075 7058 c42 -138 177 -246 330 -264 l55 -7 0 147 0 146 -196 0
-195 0 6 -22z"/>
<path d="M4480 6936 l0 -144 41 9 c125 28 229 124 279 254 l10 25 -165 0 -165
0 0 -144z"/>
<path d="M5017 7049 c26 -44 112 -123 164 -149 57 -30 133 -50 187 -50 l42 0
0 115 0 115 -206 0 -205 0 18 -31z"/>
<path d="M5430 6965 l0 -115 28 6 c105 25 199 85 257 163 19 27 35 51 35 55 0
3 -72 6 -160 6 l-160 0 0 -115z"/>
<path d="M6165 7023 c53 -50 119 -89 183 -108 22 -6 22 -5 22 79 l0 86 -132 0
-133 -1 60 -56z"/>
<path d="M6390 6995 c0 -84 0 -85 27 -91 41 -11 157 12 216 42 59 30 133 88
148 116 9 17 1 18 -191 18 l-200 0 0 -85z"/>
<path d="M6985 7058 c19 -61 77 -150 140 -214 64 -66 163 -134 193 -134 9 0
12 44 12 185 l0 185 -176 0 -175 0 6 -22z"/>
<path d="M7342 6888 l3 -193 55 -18 c81 -28 231 -42 320 -31 l75 9 3 213 2
212 -230 0 -230 0 2 -192z"/>
<path d="M7820 6870 c0 -115 2 -210 4 -210 3 0 42 12 88 26 101 32 237 101
312 160 l56 44 0 95 0 95 -230 0 -230 0 0 -210z"/>
<path d="M8300 6850 l0 -230 230 0 230 0 0 230 0 230 -230 0 -229 0 -1 -230z"/>
<path d="M8772 6853 l3 -228 28 -3 c16 -2 34 3 40 11 119 147 297 410 297 439
0 4 -83 8 -185 8 l-185 0 2 -227z"/>
<path d="M8194 6740 l-81 -115 80 -3 c44 -2 81 -1 84 1 2 3 2 55 1 118 l-3
113 -81 -114z"/>
<path d="M2256 6598 c-3 -7 -11 -65 -20 -128 -12 -93 -49 -238 -82 -317 -5
-10 38 -13 195 -13 l201 0 -2 233 -3 232 -143 3 c-109 2 -143 0 -146 -10z"/>
<path d="M2570 6374 l0 -235 33 3 c30 3 32 6 39 53 3 28 10 132 14 233 l7 182
-46 0 -47 0 0 -236z"/>
<path d="M2929 6590 c-52 -27 -124 -112 -143 -167 -23 -68 -21 -173 5 -234
l22 -50 106 3 106 3 0 230 0 230 -30 2 c-16 2 -46 -6 -66 -17z"/>
<path d="M3044 6597 c-2 -7 -3 -111 -2 -232 l3 -220 158 -3 158 -3 22 48 c27
59 29 187 4 243 -27 60 -76 120 -124 150 -42 27 -55 30 -130 30 -59 0 -85 -4
-89 -13z"/>
<path d="M3377 6592 c13 -9 45 -30 73 -45 l50 -28 0 45 0 46 -72 0 c-71 0 -72
-1 -51 -18z"/>
<path d="M3527 6603 c-4 -3 -7 -26 -7 -49 l0 -43 56 -11 c82 -17 164 1 258 56
42 25 76 47 76 49 0 8 -376 6 -383 -2z"/>
<path d="M8038 6528 c-34 -46 -98 -124 -140 -175 l-78 -92 0 -60 0 -61 230 0
230 0 0 235 0 235 -90 0 -89 0 -63 -82z"/>
<path d="M8300 6375 l0 -235 49 0 48 0 150 163 c220 237 215 231 211 269 l-3
33 -227 3 -228 2 0 -235z"/>
<path d="M6675 6356 c-59 -19 -101 -43 -146 -83 -37 -34 -99 -113 -99 -128 0
-3 93 -4 208 -3 l207 3 3 113 3 112 -68 -1 c-37 0 -86 -6 -108 -13z"/>
<path d="M6864 6356 c-3 -7 -3 -57 -2 -112 l3 -99 143 -3 c78 -1 142 1 142 6
0 16 -55 86 -98 124 -65 59 -178 110 -188 84z"/>
<path d="M2116 6079 c-25 -49 -26 -56 -26 -230 l0 -179 230 0 230 0 0 230 0
230 -204 0 -203 0 -27 -51z"/>
<path d="M2820 6125 c0 -13 81 -78 124 -100 79 -40 86 -36 86 40 l0 65 -105 0
c-58 0 -105 -2 -105 -5z"/>
<path d="M3040 6059 l0 -72 68 5 c79 6 145 36 212 97 l45 40 -162 1 -163 0 0
-71z"/>
<path d="M3705 6100 c-50 -40 -93 -99 -116 -160 -22 -58 -25 -171 -7 -231 l11
-39 194 0 193 0 0 230 0 230 -119 0 c-116 0 -119 0 -156 -30z"/>
<path d="M4000 5900 l0 -230 135 0 135 0 12 28 c7 15 12 68 13 117 0 82 -3 96
-33 157 -21 43 -51 83 -83 112 -49 44 -53 46 -115 46 l-64 0 0 -230z"/>
<path d="M5462 6102 l-32 -27 0 -202 0 -203 230 0 230 0 0 230 0 230 -197 0
-198 -1 -33 -27z"/>
<path d="M5910 5900 l0 -230 120 0 119 0 7 36 c13 73 -3 174 -40 250 -45 89
-130 174 -175 174 l-31 0 0 -230z"/>
<path d="M6411 6093 c-37 -145 -7 -281 84 -382 l37 -41 159 0 159 0 0 230 0
230 -215 0 -214 0 -10 -37z"/>
<path d="M6867 6123 c-4 -3 -7 -107 -7 -230 l0 -223 94 0 94 0 40 45 c93 105
125 258 81 383 l-11 32 -142 0 c-79 0 -146 -3 -149 -7z"/>
<path d="M7610 6035 c-52 -53 -134 -130 -182 -173 l-88 -77 0 -57 0 -58 230 0
230 0 0 230 0 230 -48 0 c-47 0 -49 -1 -142 -95z"/>
<path d="M7820 5900 l0 -230 33 0 c26 1 52 18 147 102 63 55 152 136 198 179
82 77 82 78 82 128 l0 51 -230 0 -230 0 0 -230z"/>
<path d="M5359 5978 c-43 -92 -44 -94 -44 -198 l0 -105 50 -3 50 -3 0 201 c0
110 -3 200 -6 200 -3 0 -26 -42 -50 -92z"/>
<path d="M4663 6032 c-61 -22 -124 -63 -159 -105 -22 -27 -24 -36 -24 -143 l0
-114 230 0 230 0 0 175 0 175 -27 12 c-51 20 -192 21 -250 0z"/>
<path d="M4950 5840 l0 -170 111 0 111 0 -6 38 c-14 77 -39 140 -74 188 -36
47 -114 114 -133 114 -5 0 -9 -73 -9 -170z"/>
<path d="M1968 5831 c-54 -83 -98 -152 -98 -155 0 -3 45 -6 100 -6 l100 0 0
155 c0 85 -1 155 -2 155 -2 0 -47 -67 -100 -149z"/>
<path d="M2570 5754 l0 -84 247 0 c135 0 244 2 242 4 -5 4 -340 118 -426 145
l-63 19 0 -84z"/>
<path d="M7268 5724 c-23 -20 -47 -40 -52 -45 -6 -5 15 -9 52 -9 l62 0 0 45
c0 25 -4 45 -9 45 -5 0 -29 -16 -53 -36z"/>
<path d="M1824 5608 c-15 -24 -53 -83 -84 -133 -115 -183 -130 -212 -130 -249
l0 -36 230 0 230 0 0 230 0 230 -110 0 -110 0 -26 -42z"/>
<path d="M2090 5420 l0 -230 139 0 c123 0 139 2 144 18 3 9 32 94 65 187 58
164 61 170 86 167 25 -3 26 0 26 43 l0 45 -230 0 -230 0 0 -230z"/>
<path d="M2572 5599 l3 -50 205 -76 c113 -41 215 -78 228 -80 22 -5 22 -5 22
126 l0 131 -231 0 -230 0 3 -51z"/>
<path d="M3040 5514 l0 -135 38 -16 c52 -22 412 -153 420 -153 4 0 6 67 4 149
l-3 149 -27 7 c-15 4 -101 35 -192 71 -97 37 -181 64 -203 64 l-37 0 0 -136z"/>
<path d="M3632 5604 c68 -95 176 -153 286 -154 l62 0 0 100 0 100 -191 0 -190
0 33 -46z"/>
<path d="M4000 5549 c0 -115 -6 -111 97 -62 48 22 163 131 163 154 0 5 -55 9
-130 9 l-130 0 0 -101z"/>
<path d="M4480 5546 l0 -104 55 -50 c72 -66 146 -95 245 -96 41 0 94 5 118 12
l42 13 0 164 0 165 -230 0 -230 0 0 -104z"/>
<path d="M4950 5490 c0 -88 3 -160 8 -160 4 0 30 19 57 41 82 68 124 139 149
252 l6 27 -110 0 -110 0 0 -160z"/>
<path d="M5330 5626 c25 -67 102 -195 86 -143 -3 10 -6 52 -6 93 l0 74 -45 0
c-43 0 -44 -1 -35 -24z"/>
<path d="M5430 5556 l0 -94 60 -40 c33 -22 83 -48 112 -58 62 -21 182 -24 246
-5 l42 12 0 139 0 140 -230 0 -230 0 0 -94z"/>
<path d="M5910 5514 l0 -135 41 23 c54 30 131 113 163 176 14 28 26 56 26 62
0 6 -43 10 -115 10 l-115 0 0 -136z"/>
<path d="M6455 5645 c42 -17 296 -65 340 -65 l55 0 0 35 0 35 -202 -1 c-112 0
-198 -2 -193 -4z"/>
<path d="M7120 5609 c-30 -23 -101 -73 -157 -111 l-103 -68 0 -120 0 -120 167
0 167 0 68 40 68 41 0 189 0 190 -78 0 c-75 0 -79 -1 -132 -41z"/>
<path d="M7340 5464 l0 -186 28 17 c109 70 352 246 466 337 20 17 9 18 -236
18 l-258 0 0 -186z"/>
<path d="M3520 5340 l0 -150 230 0 230 0 0 65 0 66 -47 20 c-77 33 -390 149
-402 149 -8 0 -11 -48 -11 -150z"/>
<path d="M6785 5389 c-27 -17 -126 -69 -220 -115 l-170 -84 228 0 227 0 0 115
c0 63 -3 115 -7 114 -5 0 -30 -14 -58 -30z"/>
<path d="M4000 5250 l0 -60 138 0 c93 1 132 4 120 10 -18 11 -247 110 -254
110 -2 0 -4 -27 -4 -60z"/>
<path d="M1493 5053 c-90 -165 -173 -328 -173 -338 0 -3 61 -5 135 -5 l135 0
0 255 c0 140 -1 255 -3 255 -1 0 -44 -75 -94 -167z"/>
<path d="M6250 5143 c-52 -19 -150 -48 -217 -65 l-123 -31 0 -168 c0 -159 1
-169 19 -169 26 0 257 54 356 82 l80 24 3 182 c2 142 0 182 -10 181 -7 0 -56
-16 -108 -36z"/>
<path d="M1610 4940 l0 -230 230 0 230 0 0 230 0 230 -230 0 -230 0 0 -230z"/>
<path d="M2090 4940 l0 -230 151 0 152 0 -7 58 c-14 119 -25 260 -26 330 l0
72 -135 0 -135 0 0 -230z"/>
<path d="M3640 5148 c25 -11 111 -49 193 -83 l147 -63 0 84 0 84 -192 -1 -193
0 45 -21z"/>
<path d="M4000 5082 l0 -88 43 -16 c153 -59 263 -100 335 -127 l82 -30 0 149
0 148 -65 26 c-61 24 -76 26 -230 26 l-165 0 0 -88z"/>
<path d="M6390 5000 c0 -101 4 -170 10 -170 27 0 410 151 438 173 8 6 12 37
12 88 l0 79 -230 0 -230 0 0 -170z"/>
<path d="M6860 5095 c0 -44 4 -75 10 -75 11 0 121 55 230 114 l65 36 -152 0
-153 0 0 -75z"/>
<path d="M4480 4961 l0 -146 63 -19 c155 -47 316 -86 355 -86 l42 0 0 145 c0
142 0 145 -22 149 -13 2 -77 14 -142 26 -65 11 -159 34 -207 49 l-89 29 0
-147z"/>
<path d="M5800 5029 c-86 -15 -285 -39 -327 -39 l-43 0 0 -140 0 -140 230 0
230 0 0 165 c0 187 9 172 -90 154z"/>
<path d="M4950 4855 l0 -145 230 0 230 0 0 130 c0 72 -1 133 -2 138 -2 4 -78
7 -169 8 -91 1 -193 4 -227 8 l-62 7 0 -146z"/>
<path d="M3040 4770 l0 -60 86 0 86 0 -6 28 c-4 15 -22 42 -41 60 -29 26 -43
32 -80 32 l-45 0 0 -60z"/>
<path d="M1269 4613 c-96 -208 -140 -322 -137 -350 l3 -28 228 -3 227 -2 0
235 0 235 -140 0 -141 0 -40 -87z"/>
<path d="M1617 4693 c-4 -3 -7 -109 -7 -235 l0 -228 177 2 177 3 52 115 53
115 0 118 1 117 -223 0 c-123 0 -227 -3 -230 -7z"/>
<path d="M2092 4468 l3 -233 208 -3 c114 -1 207 0 207 4 0 3 -14 53 -31 111
-16 57 -42 159 -57 226 l-28 122 -152 3 -152 3 2 -233z"/>
<path d="M3047 4693 c-4 -3 -7 -25 -7 -49 0 -39 3 -43 29 -49 17 -3 43 0 63 8
34 14 78 63 78 86 0 12 -152 16 -163 4z"/>
<path d="M5727 4693 c-8 -7 43 -100 115 -213 l48 -75 0 148 0 147 -78 0 c-43
0 -82 -3 -85 -7z"/>
<path d="M5910 4536 l0 -163 43 -72 42 -71 143 0 c82 0 142 4 142 9 0 24 -347
461 -365 461 -3 0 -5 -74 -5 -164z"/>
<path d="M3520 4378 l0 -162 26 35 c43 57 66 116 59 152 -6 27 -71 137 -82
137 -1 0 -3 -73 -3 -162z"/>
<path d="M3417 4516 c-68 -25 -97 -66 -97 -138 0 -89 69 -148 163 -140 15 2
17 16 17 142 0 78 -4 140 -9 140 -5 0 -15 2 -23 5 -7 2 -30 -2 -51 -9z"/>
<path d="M1107 4243 c-15 -27 -147 -453 -147 -475 0 -4 36 -8 80 -8 l80 0 0
245 c0 135 -2 245 -4 245 -3 0 -7 -3 -9 -7z"/>
<path d="M1130 3990 l0 -230 230 0 230 0 0 230 0 230 -230 0 -230 0 0 -230z"/>
<path d="M1610 3990 l0 -230 68 0 68 0 102 224 c56 123 102 227 102 230 0 3
-76 6 -170 6 l-170 0 0 -230z"/>
<path d="M2105 4138 c7 -85 38 -274 56 -340 l10 -38 189 0 190 0 0 187 c0 149
-3 196 -16 230 l-17 43 -210 0 -210 0 8 -82z"/>
<path d="M6037 4143 c20 -43 66 -145 104 -228 l67 -150 81 -3 81 -3 0 176 0
175 -36 55 -37 55 -148 0 -148 0 36 -77z"/>
<path d="M3775 4199 c-61 -18 -115 -92 -115 -157 0 -49 41 -113 90 -139 53
-28 91 -29 144 -3 61 29 86 73 86 148 0 57 -3 65 -36 102 -48 53 -103 69 -169
49z"/>
<path d="M6390 3922 l0 -162 90 0 c50 0 90 3 90 7 0 7 -49 95 -124 222 l-56
95 0 -162z"/>
<path d="M2570 3917 l0 -157 75 0 c73 0 86 5 65 26 -5 5 -39 73 -75 149 l-65
140 0 -158z"/>
<path d="M4192 3922 c-29 -11 -64 -30 -79 -43 -30 -28 -83 -98 -83 -111 0 -4
97 -8 215 -8 l216 0 -3 56 c-3 57 -3 57 -53 85 -68 38 -143 46 -213 21z"/>
<path d="M947 3718 c-17 -72 -48 -247 -60 -335 l-14 -103 124 0 123 0 0 230 0
230 -84 0 c-79 0 -84 -1 -89 -22z"/>
<path d="M1130 3510 l0 -230 220 0 220 0 10 26 c6 14 10 117 10 230 l0 204
-230 0 -230 0 0 -230z"/>
<path d="M1611 3583 c0 -101 4 -151 9 -138 5 11 33 82 63 158 l54 137 -63 0
-64 0 1 -157z"/>
<path d="M2185 3708 c14 -62 76 -230 122 -329 l46 -99 98 0 99 0 0 230 0 230
-186 0 -186 0 7 -32z"/>
<path d="M2570 3510 l0 -230 235 0 235 0 0 -240 0 -240 230 0 230 0 0 28 c0
21 -12 37 -47 67 -252 207 -504 493 -659 749 l-59 96 -82 0 -83 0 0 -230z"/>
<path d="M4020 3686 c0 -108 49 -189 142 -235 91 -46 187 -39 269 19 l29 21 0
125 0 124 -220 0 -220 0 0 -54z"/>
<path d="M6224 3728 c3 -7 35 -89 71 -183 37 -93 69 -172 71 -174 2 -2 4 80 4
182 l0 187 -76 0 c-57 0 -75 -3 -70 -12z"/>
<path d="M6390 3510 l0 -230 209 0 210 0 -26 58 c-14 31 -63 135 -109 230
l-83 172 -100 0 -101 0 0 -230z"/>
<path d="M4812 3595 c-114 -35 -191 -132 -207 -258 l-7 -57 171 0 171 0 0 165
0 165 -42 -1 c-24 0 -62 -6 -86 -14z"/>
<path d="M4950 3440 l0 -160 126 0 126 0 -7 57 c-13 108 -79 203 -168 244 -79
35 -77 40 -77 -141z"/>
<path d="M870 3243 c0 -10 -5 -99 -10 -197 -6 -99 -7 -194 -4 -213 l6 -33 129
0 129 0 0 230 0 230 -125 0 c-112 0 -125 -2 -125 -17z"/>
<path d="M1130 3030 l0 -230 175 0 c96 0 175 3 175 8 0 23 43 262 63 350 l24
102 -219 0 -218 0 0 -230z"/>
<path d="M2370 3253 c0 -14 167 -283 176 -283 2 0 4 65 4 145 l0 145 -90 0
c-49 0 -90 -3 -90 -7z"/>
<path d="M2570 3098 l0 -161 52 -69 52 -68 178 0 178 0 0 230 0 230 -230 0
-230 0 0 -162z"/>
<path d="M4610 3248 c1 -25 38 -95 70 -132 52 -59 111 -88 191 -94 l69 -5 0
122 0 121 -165 0 c-125 0 -165 -3 -165 -12z"/>
<path d="M4950 3140 l0 -120 28 6 c74 17 158 90 193 168 30 67 32 66 -101 66
l-120 0 0 -120z"/>
<path d="M6416 3213 c29 -94 93 -309 106 -358 l14 -50 157 -3 157 -3 0 188 c0
149 -3 196 -16 230 l-17 43 -208 0 -208 0 15 -47z"/>
<path d="M5552 3140 c-18 -4 -53 -15 -78 -25 l-44 -17 0 -149 0 -149 230 0
231 0 -3 158 -3 157 -65 17 c-68 17 -210 22 -268 8z"/>
<path d="M6860 2967 l0 -167 65 0 c38 0 65 4 65 10 0 16 -111 303 -121 315 -5
5 -9 -62 -9 -158z"/>
<path d="M5910 2951 l0 -151 180 0 c99 0 180 3 180 8 0 13 -114 139 -158 176
-49 40 -147 101 -179 111 l-23 6 0 -150z"/>
<path d="M5326 3018 c-51 -52 -82 -93 -105 -139 -17 -37 -31 -70 -31 -73 0 -3
50 -6 110 -6 l110 0 0 145 c0 80 -2 145 -5 145 -3 0 -38 -33 -79 -72z"/>
<path d="M863 2693 c6 -91 22 -195 48 -321 l11 -53 96 3 97 3 0 230 0 230
-129 3 -129 3 6 -98z"/>
<path d="M1135 2778 c-3 -8 -4 -112 -3 -233 l3 -220 157 -3 156 -2 6 62 c3 35
8 128 12 208 3 80 7 156 7 170 l2 25 -168 3 c-130 2 -169 0 -172 -10z"/>
<path d="M2700 2778 c0 -7 73 -85 163 -173 l162 -160 3 160 c1 87 0 165 -2
172 -7 18 -326 19 -326 1z"/>
<path d="M3047 2783 c-4 -3 -7 -83 -7 -177 l0 -171 72 -57 71 -58 159 0 158 0
0 235 0 235 -223 0 c-123 0 -227 -3 -230 -7z"/>
<path d="M3520 2555 l0 -235 230 0 230 0 0 99 0 98 -87 56 c-49 30 -140 92
-203 136 -77 55 -123 81 -142 81 l-28 0 0 -235z"/>
<path d="M5186 2781 c-4 -5 -9 -42 -12 -83 -8 -94 15 -217 57 -309 l32 -70 76
3 c42 2 75 6 74 11 -2 4 -3 108 -3 232 l0 225 -109 0 c-61 0 -112 -4 -115 -9z"/>
<path d="M5437 2783 c-4 -3 -7 -109 -7 -235 l0 -228 230 0 230 0 0 235 0 235
-223 0 c-123 0 -227 -3 -230 -7z"/>
<path d="M5910 2555 l0 -235 230 0 230 0 0 129 c0 115 -3 138 -26 203 -14 40
-35 88 -46 106 l-20 32 -184 0 -184 0 0 -235z"/>
<path d="M6548 2785 c-3 -4 0 -32 8 -63 14 -58 84 -390 84 -398 0 -3 46 -3
103 -2 l102 3 0 230 0 230 -146 3 c-80 1 -148 0 -151 -3z"/>
<path d="M6865 2778 c-3 -8 -4 -112 -3 -233 l3 -220 143 -3 c110 -2 142 0 141
10 0 7 -33 112 -72 233 l-73 220 -67 3 c-49 2 -69 -1 -72 -10z"/>
<path d="M4000 2410 l0 -90 155 0 c97 0 155 4 155 10 0 6 -4 10 -8 10 -4 0
-73 36 -152 80 -79 44 -146 80 -147 80 -2 0 -3 -40 -3 -90z"/>
<path d="M930 2297 c0 -51 154 -503 181 -532 6 -5 8 101 7 265 l-3 275 -92 3
c-73 2 -93 0 -93 -11z"/>
<path d="M1130 2080 l0 -230 176 0 176 0 -6 35 c-7 34 -25 314 -26 388 l0 37
-160 0 -160 0 0 -230z"/>
<path d="M3210 2303 c1 -8 40 -37 208 -155 l82 -57 0 109 0 110 -145 0 c-80 0
-145 -3 -145 -7z"/>
<path d="M3520 2193 l0 -118 107 -64 c231 -140 272 -161 313 -161 l40 0 0 230
0 230 -230 0 -230 0 0 -117z"/>
<path d="M4000 2080 l0 -230 230 0 230 0 0 205 0 205 -50 25 c-47 24 -57 25
-230 25 l-180 0 0 -230z"/>
<path d="M5291 2278 c33 -48 109 -138 117 -138 4 0 6 37 5 82 l-1 83 -72 3
-72 3 23 -33z"/>
<path d="M5430 2216 l0 -95 38 -30 c50 -42 174 -106 242 -125 30 -8 83 -18
118 -22 l62 -7 0 187 0 186 -230 0 -230 0 0 -94z"/>
<path d="M5910 2124 l0 -185 48 7 c62 9 145 38 196 68 67 39 144 129 182 211
19 40 34 76 34 79 0 3 -103 6 -230 6 l-230 0 0 -186z"/>
<path d="M6644 2293 c10 -32 56 -367 56 -405 l0 -38 75 0 75 0 0 230 0 230
-106 0 c-96 0 -105 -2 -100 -17z"/>
<path d="M6867 2303 c-4 -3 -7 -107 -7 -230 l0 -223 204 0 c189 0 204 1 200
18 -2 9 -26 113 -55 230 l-51 212 -142 0 c-79 0 -146 -3 -149 -7z"/>
<path d="M4480 2049 l0 -199 230 0 230 0 0 103 0 104 -97 38 c-54 21 -158 64
-230 96 l-133 57 0 -199z"/>
<path d="M4950 1951 l0 -101 257 0 c141 0 254 2 252 4 -6 6 -198 82 -344 136
-71 27 -138 52 -147 55 -16 7 -18 -2 -18 -94z"/>
<path d="M1130 1773 c0 -49 7 -69 56 -162 31 -58 76 -136 100 -173 l44 -68
130 0 130 0 0 78 c0 67 -4 87 -31 143 -17 35 -41 103 -53 151 l-21 88 -177 0
-178 0 0 -57z"/>
<path d="M4055 1773 c125 -64 383 -183 396 -183 5 0 9 54 9 120 l0 120 -257
-1 -258 0 110 -56z"/>
<path d="M4480 1702 l0 -127 148 -57 c187 -73 284 -108 299 -108 10 0 13 48
13 210 l0 210 -230 0 -230 0 0 -128z"/>
<path d="M4950 1615 l0 -215 28 -13 c17 -7 100 -13 230 -15 l202 -3 0 230 0
231 -230 0 -230 0 0 -215z"/>
<path d="M5430 1600 l0 -230 230 0 230 0 0 134 0 134 -189 96 c-148 75 -198
96 -230 96 l-41 0 0 -230z"/>
<path d="M6710 1798 c1 -18 5 -80 10 -138 6 -58 10 -147 11 -197 l0 -93 59 0
60 0 0 230 0 230 -70 0 -70 0 0 -32z"/>
<path d="M6860 1600 l0 -230 235 0 235 0 0 63 c0 54 -41 330 -56 380 -5 15
-24 17 -210 17 l-204 0 0 -230z"/>
<path d="M5910 1495 l0 -125 228 0 227 0 -55 33 c-68 41 -389 217 -395 217 -3
0 -5 -56 -5 -125z"/>
<path d="M1360 1330 c14 -27 182 -195 208 -209 22 -12 22 -12 22 109 l0 120
-120 0 c-117 0 -120 -1 -110 -20z"/>
<path d="M1612 1218 l3 -132 70 -38 c88 -48 202 -86 305 -102 l80 -13 0 104
c0 90 -2 104 -17 110 -75 26 -191 90 -255 141 -74 59 -80 62 -133 62 l-56 0 3
-132z"/>
<path d="M5120 1343 c8 -3 77 -29 152 -58 l136 -52 4 59 3 58 -155 -1 c-85 0
-148 -3 -140 -6z"/>
<path d="M5430 1287 l0 -64 90 -41 c50 -23 152 -75 226 -117 74 -41 137 -75
139 -75 3 0 5 81 5 180 l0 180 -230 0 -230 0 0 -63z"/>
<path d="M5910 1161 l0 -189 65 -41 65 -41 165 0 165 0 0 230 0 230 -230 0
-230 0 0 -189z"/>
<path d="M6390 1120 l0 -230 230 0 230 0 0 230 0 231 -62 -3 c-59 -3 -62 -4
-70 -33 -11 -45 -43 -75 -80 -75 -19 0 -73 22 -135 55 -57 30 -106 55 -109 55
-2 0 -4 -103 -4 -230z"/>
<path d="M6862 1123 l3 -228 230 0 230 0 3 228 2 227 -235 0 -235 0 2 -227z"/>
<path d="M2674 1286 c-22 -12 -55 -34 -72 -46 l-32 -24 0 -108 0 -109 32 17
c57 29 130 107 159 169 34 70 35 86 11 108 -25 23 -49 21 -98 -7z"/>
<path d="M2480 1159 c-94 -49 -220 -59 -353 -29 l-37 8 0 -104 0 -104 98 0
c112 0 199 12 295 41 l67 20 0 99 c0 55 -3 99 -7 99 -5 -1 -33 -15 -63 -30z"/>
<path d="M6090 860 c14 -10 81 -60 150 -109 l125 -91 3 97 c1 53 0 103 -2 110
-4 10 -40 13 -153 12 -147 0 -148 0 -123 -19z"/>
<path d="M6390 761 l0 -119 138 -116 137 -116 90 3 90 2 0 230 0 230 -227 3
-228 2 0 -119z"/>
<path d="M6865 867 c-3 -7 -4 -111 -3 -232 l3 -220 230 0 230 0 0 230 0 230
-228 3 c-179 2 -229 0 -232 -11z"/>
<path d="M6755 328 c43 -40 82 -74 86 -76 5 -2 9 30 9 72 l0 76 -87 0 -87 0
79 -72z"/>
<path d="M6867 394 c-4 -4 -7 -42 -7 -85 l0 -78 95 -93 c53 -51 115 -103 138
-116 88 -49 175 -6 217 106 17 45 20 74 18 161 l-3 106 -226 3 c-124 1 -228
-1 -232 -4z"/>
</g>
</svg>
